<?xml version="1.0" standalone="yes"?>

<svg version="1.1" viewBox="0.0 0.0 960.0 720.0" fill="none" stroke="none" stroke-linecap="square" stroke-miterlimit="10" xmlns="http://www.w3.org/2000/svg" xmlns:xlink="http://www.w3.org/1999/xlink"><clipPath id="p.0"><path d="m0 0l960.0 0l0 720.0l-960.0 0l0 -720.0z" clip-rule="nonzero"></path></clipPath><g clip-path="url(#p.0)"><path fill="#000000" fill-opacity="0.0" d="m0 0l960.0 0l0 720.0l-960.0 0z" fill-rule="nonzero"></path><path fill="#ffffff" d="m150.06326 176.04134l-16.137527 0l0 173.86983l16.137527 0z" fill-rule="nonzero"></path><path fill="#cbcbcb" d="m133.92574 176.04134l-75.57901 -75.579l0 173.86981l75.57901 75.57901z" fill-rule="nonzero"></path><path fill="#ffffff" d="m150.06326 176.04134l-75.57901 -75.579l-16.137527 0l75.57901 75.579z" fill-rule="nonzero"></path><path fill="#000000" fill-opacity="0.0" d="m150.06326 176.04134l-75.57901 -75.579l-16.137527 0l0 173.86981l75.57901 75.57901l16.137527 0zm0 0l-16.137527 0l-75.57901 -75.579m75.57901 75.579l0 173.86983" fill-rule="nonzero"></path><path stroke="#666666" stroke-width="4.0" stroke-linejoin="round" stroke-linecap="butt" d="m150.06326 176.04134l-75.57901 -75.579l-16.137527 0l0 173.86981l75.57901 75.57901l16.137527 0zm0 0l-16.137527 0l-75.57901 -75.579m75.57901 75.579l0 173.86983" fill-rule="nonzero"></path><path fill="#b7b7b7" d="m294.10083 201.20758l-89.134735 0l0 95.52841l89.134735 0z" fill-rule="nonzero"></path><path fill="#929292" d="m204.9661 201.20758l-47.558197 -47.558197l0 95.52841l47.558197 47.558197z" fill-rule="nonzero"></path><path fill="#c5c5c5" d="m294.10083 201.20758l-47.558212 -47.558197l-89.13472 0l47.558197 47.558197z" fill-rule="nonzero"></path><path fill="#000000" fill-opacity="0.0" d="m294.10083 201.20758l-47.558212 -47.558197l-89.13472 0l0 95.52841l47.558197 47.558197l89.134735 0zm0 0l-89.134735 0l-47.558197 -47.558197m47.558197 47.558197l0 95.52841" fill-rule="nonzero"></path><path stroke="#434343" stroke-width="4.0" stroke-linejoin="round" stroke-linecap="butt" d="m294.10083 201.20758l-47.558212 -47.558197l-89.13472 0l0 95.52841l47.558197 47.558197l89.134735 0zm0 0l-89.134735 0l-47.558197 -47.558197m47.558197 47.558197l0 95.52841" fill-rule="nonzero"></path><path fill="#b7b7b7" d="m512.2425 214.21596l-194.9845 0l0 37.787613l194.9845 0z" fill-rule="nonzero"></path><path fill="#929292" d="m317.258 214.21596l-15.818665 -15.818695l0 37.78763l15.818665 15.81868z" fill-rule="nonzero"></path><path fill="#c5c5c5" d="m512.2425 214.21596l-15.818695 -15.818695l-194.98447 0l15.818665 15.818695z" fill-rule="nonzero"></path><path fill="#000000" fill-opacity="0.0" d="m512.2425 214.21596l-15.818695 -15.818695l-194.98447 0l0 37.78763l15.818665 15.81868l194.9845 0zm0 0l-194.9845 0l-15.818665 -15.818695m15.818665 15.818695l0 37.787613" fill-rule="nonzero"></path><path stroke="#434343" stroke-width="4.0" stroke-linejoin="round" stroke-linecap="butt" d="m512.2425 214.21596l-15.818695 -15.818695l-194.98447 0l0 37.78763l15.818665 15.81868l194.9845 0zm0 0l-194.9845 0l-15.818665 -15.818695m15.818665 15.818695l0 37.787613" fill-rule="nonzero"></path><path fill="#999999" d="m682.6137 347.93158l-17.798279 -0.09631348l-232.62692 -233.41548l17.798279 0.096321106z" fill-rule="nonzero"></path><path stroke="#434343" stroke-width="4.0" stroke-linejoin="round" stroke-linecap="butt" d="m682.6137 347.93158l-17.798279 -0.09631348l-232.62692 -233.41548l17.798279 0.096321106z" fill-rule="nonzero"></path><path fill="#999999" d="m669.4577 284.75577l-17.799438 -0.09515381l-132.09033 -132.50327l17.799438 0.09515381z" fill-rule="nonzero"></path><path stroke="#434343" stroke-width="4.0" stroke-linejoin="round" stroke-linecap="butt" d="m669.4577 284.75577l-17.799438 -0.09515381l-132.09033 -132.50327l17.799438 0.09515381z" fill-rule="nonzero"></path><path fill="#999999" d="m678.0281 246.14615l-17.795837 -0.09877014l-71.08606 -71.3658l17.795837 0.09875488z" fill-rule="nonzero"></path><path stroke="#434343" stroke-width="4.0" stroke-linejoin="round" stroke-linecap="butt" d="m678.0281 246.14615l-17.795837 -0.09877014l-71.08606 -71.3658l17.795837 0.09875488z" fill-rule="nonzero"></path><path fill="#999999" d="m700.3703 223.90788l-17.797058 -0.0974884l-42.832825 -42.98912l17.79712 0.097473145z" fill-rule="nonzero"></path><path stroke="#434343" stroke-width="4.0" stroke-linejoin="round" stroke-linecap="butt" d="m700.3703 223.90788l-17.797058 -0.0974884l-42.832825 -42.98912l17.79712 0.097473145z" fill-rule="nonzero"></path><path fill="#999999" d="m721.2818 208.01047l-17.793701 -0.10084534l-19.65509 -19.741669l17.793701 0.10084534z" fill-rule="nonzero"></path><path stroke="#434343" stroke-width="4.0" stroke-linejoin="round" stroke-linecap="butt" d="m721.2818 208.01047l-17.793701 -0.10084534l-19.65509 -19.741669l17.793701 0.10084534z" fill-rule="nonzero"></path><path fill="#000000" fill-opacity="0.0" d="m692.72986 188.21837l162.67719 -163.84251" fill-rule="nonzero"></path><path stroke="#434343" stroke-width="4.0" stroke-linejoin="round" stroke-linecap="butt" stroke-dasharray="16.0,12.0" d="m692.72986 188.21837l162.67719 -163.84251" fill-rule="nonzero"></path><path fill="#000000" fill-opacity="0.0" d="m712.38495 207.96004l143.02362 230.04726" fill-rule="nonzero"></path><path stroke="#434343" stroke-width="4.0" stroke-linejoin="round" stroke-linecap="butt" stroke-dasharray="16.0,12.0" d="m712.38495 207.96004l143.02362 230.04726" fill-rule="nonzero"></path><path fill="#10c485" d="m847.3827 24.36483l16.062988 0l0 413.6378l-16.062988 0z" fill-rule="nonzero"></path><path stroke="#434343" stroke-width="4.0" stroke-linejoin="round" stroke-linecap="butt" d="m847.3827 24.36483l16.062988 0l0 413.6378l-16.062988 0z" fill-rule="nonzero"></path><path fill="#000000" fill-opacity="0.0" d="m848.1421 41.293915l15.149597 0.4724388" fill-rule="nonzero"></path><path stroke="#434343" stroke-width="4.0" stroke-linejoin="round" stroke-linecap="butt" d="m848.1421 41.293915l15.149597 0.4724388" fill-rule="nonzero"></path><path fill="#000000" fill-opacity="0.0" d="m847.9131 56.485382l15.622009 0.22047043" fill-rule="nonzero"></path><path stroke="#434343" stroke-width="4.0" stroke-linejoin="round" stroke-linecap="butt" d="m847.9131 56.485382l15.622009 0.22047043" fill-rule="nonzero"></path><path fill="#000000" fill-opacity="0.0" d="m848.1421 72.82962l15.40155 0.47244263" fill-rule="nonzero"></path><path stroke="#434343" stroke-width="4.0" stroke-linejoin="round" stroke-linecap="butt" d="m848.1421 72.82962l15.40155 0.47244263" fill-rule="nonzero"></path><path fill="#000000" fill-opacity="0.0" d="m847.684 87.33232l16.315002 0.69291687" fill-rule="nonzero"></path><path stroke="#434343" stroke-width="4.0" stroke-linejoin="round" stroke-linecap="butt" d="m847.684 87.33232l16.315002 0.69291687" fill-rule="nonzero"></path><path fill="#000000" fill-opacity="0.0" d="m847.9131 102.52379l15.622009 0.22047424" fill-rule="nonzero"></path><path stroke="#434343" stroke-width="4.0" stroke-linejoin="round" stroke-linecap="butt" d="m847.9131 102.52379l15.622009 0.22047424" fill-rule="nonzero"></path><path fill="#000000" fill-opacity="0.0" d="m847.9131 116.796906l15.842468 0.22047424" fill-rule="nonzero"></path><path stroke="#434343" stroke-width="4.0" stroke-linejoin="round" stroke-linecap="butt" d="m847.9131 116.796906l15.842468 0.22047424" fill-rule="nonzero"></path><path fill="#000000" fill-opacity="0.0" d="m847.684 130.60843l15.842529 0.47244263" fill-rule="nonzero"></path><path stroke="#434343" stroke-width="4.0" stroke-linejoin="round" stroke-linecap="butt" d="m847.684 130.60843l15.842529 0.47244263" fill-rule="nonzero"></path><path fill="#000000" fill-opacity="0.0" d="m847.684 144.64954l15.842529 0.47244263" fill-rule="nonzero"></path><path stroke="#434343" stroke-width="4.0" stroke-linejoin="round" stroke-linecap="butt" d="m847.684 144.64954l15.842529 0.47244263" fill-rule="nonzero"></path><path fill="#000000" fill-opacity="0.0" d="m848.1421 160.07301l15.622009 0.69291687" fill-rule="nonzero"></path><path stroke="#434343" stroke-width="4.0" stroke-linejoin="round" stroke-linecap="butt" d="m848.1421 160.07301l15.622009 0.69291687" fill-rule="nonzero"></path><path fill="#000000" fill-opacity="0.0" d="m847.9131 175.26448l15.40155 0.22047424" fill-rule="nonzero"></path><path stroke="#434343" stroke-width="4.0" stroke-linejoin="round" stroke-linecap="butt" d="m847.9131 175.26448l15.40155 0.22047424" fill-rule="nonzero"></path><path fill="#000000" fill-opacity="0.0" d="m847.8528 189.08083l15.62207 0" fill-rule="nonzero"></path><path stroke="#434343" stroke-width="4.0" stroke-linejoin="round" stroke-linecap="butt" d="m847.8528 189.08083l15.62207 0" fill-rule="nonzero"></path><path fill="#000000" fill-opacity="0.0" d="m848.0818 203.12195l15.401611 0" fill-rule="nonzero"></path><path stroke="#434343" stroke-width="4.0" stroke-linejoin="round" stroke-linecap="butt" d="m848.0818 203.12195l15.401611 0" fill-rule="nonzero"></path><path fill="#000000" fill-opacity="0.0" d="m847.8528 218.398l15.62207 0.22047424" fill-rule="nonzero"></path><path stroke="#434343" stroke-width="4.0" stroke-linejoin="round" stroke-linecap="butt" d="m847.8528 218.398l15.62207 0.22047424" fill-rule="nonzero"></path><path fill="#000000" fill-opacity="0.0" d="m847.3827 231.18373l16.062988 0" fill-rule="nonzero"></path><path stroke="#434343" stroke-width="4.0" stroke-linejoin="round" stroke-linecap="butt" d="m847.3827 231.18373l16.062988 0" fill-rule="nonzero"></path><path fill="#000000" fill-opacity="0.0" d="m846.93427 244.87068l16.503967 0" fill-rule="nonzero"></path><path stroke="#434343" stroke-width="4.0" stroke-linejoin="round" stroke-linecap="butt" d="m846.93427 244.87068l16.503967 0" fill-rule="nonzero"></path><path fill="#000000" fill-opacity="0.0" d="m848.0818 259.0592l15.62207 0.2204895" fill-rule="nonzero"></path><path stroke="#434343" stroke-width="4.0" stroke-linejoin="round" stroke-linecap="butt" d="m848.0818 259.0592l15.62207 0.2204895" fill-rule="nonzero"></path><path fill="#000000" fill-opacity="0.0" d="m847.8528 274.125l15.62207 0" fill-rule="nonzero"></path><path stroke="#434343" stroke-width="4.0" stroke-linejoin="round" stroke-linecap="butt" d="m847.8528 274.125l15.62207 0" fill-rule="nonzero"></path><path fill="#000000" fill-opacity="0.0" d="m848.0818 289.0893l15.401611 0.47244263" fill-rule="nonzero"></path><path stroke="#434343" stroke-width="4.0" stroke-linejoin="round" stroke-linecap="butt" d="m848.0818 289.0893l15.401611 0.47244263" fill-rule="nonzero"></path><path fill="#000000" fill-opacity="0.0" d="m847.8528 302.90082l15.62207 0.47244263" fill-rule="nonzero"></path><path stroke="#434343" stroke-width="4.0" stroke-linejoin="round" stroke-linecap="butt" d="m847.8528 302.90082l15.62207 0.47244263" fill-rule="nonzero"></path><path fill="#000000" fill-opacity="0.0" d="m847.3948 317.8627l16.094482 0.2204895" fill-rule="nonzero"></path><path stroke="#434343" stroke-width="4.0" stroke-linejoin="round" stroke-linecap="butt" d="m847.3948 317.8627l16.094482 0.2204895" fill-rule="nonzero"></path><path fill="#000000" fill-opacity="0.0" d="m848.0818 334.35196l15.401611 0" fill-rule="nonzero"></path><path stroke="#434343" stroke-width="4.0" stroke-linejoin="round" stroke-linecap="butt" d="m848.0818 334.35196l15.401611 0" fill-rule="nonzero"></path><path fill="#000000" fill-opacity="0.0" d="m847.6238 349.31625l15.842529 0" fill-rule="nonzero"></path><path stroke="#434343" stroke-width="4.0" stroke-linejoin="round" stroke-linecap="butt" d="m847.6238 349.31625l15.842529 0" fill-rule="nonzero"></path><path fill="#000000" fill-opacity="0.0" d="m847.8528 364.04855l15.149597 0" fill-rule="nonzero"></path><path stroke="#434343" stroke-width="4.0" stroke-linejoin="round" stroke-linecap="butt" d="m847.8528 364.04855l15.149597 0" fill-rule="nonzero"></path><path fill="#000000" fill-opacity="0.0" d="m848.0818 378.78082l15.401611 0" fill-rule="nonzero"></path><path stroke="#434343" stroke-width="4.0" stroke-linejoin="round" stroke-linecap="butt" d="m848.0818 378.78082l15.401611 0" fill-rule="nonzero"></path><path fill="#000000" fill-opacity="0.0" d="m847.8528 393.28113l15.40155 0.22045898" fill-rule="nonzero"></path><path stroke="#434343" stroke-width="4.0" stroke-linejoin="round" stroke-linecap="butt" d="m847.8528 393.28113l15.40155 0.22045898" fill-rule="nonzero"></path><path fill="#000000" fill-opacity="0.0" d="m847.8528 407.99408l15.40155 0" fill-rule="nonzero"></path><path stroke="#434343" stroke-width="4.0" stroke-linejoin="round" stroke-linecap="butt" d="m847.8528 407.99408l15.40155 0" fill-rule="nonzero"></path><path fill="#000000" fill-opacity="0.0" d="m847.8528 421.8056l15.62207 0" fill-rule="nonzero"></path><path stroke="#434343" stroke-width="4.0" stroke-linejoin="round" stroke-linecap="butt" d="m847.8528 421.8056l15.62207 0" fill-rule="nonzero"></path><path fill="#000000" fill-opacity="0.0" d="m680.7522 346.5684c-1.6838989 -10.589203 -9.797302 -46.346954 -10.103455 -63.535217c-0.30621338 -17.188263 3.3677979 -29.619064 8.2664795 -39.59439c4.8986816 -9.975327 14.389832 -14.425873 21.125488 -20.257599c6.7356567 -5.8317413 16.07373 -12.2773285 19.288513 -14.732803" fill-rule="nonzero"></path><path stroke="#666666" stroke-width="4.0" stroke-linejoin="round" stroke-linecap="butt" stroke-dasharray="16.0,12.0" d="m680.7522 346.5684c-1.6838989 -10.589203 -9.797302 -46.346954 -10.103455 -63.535217c-0.30621338 -17.188263 3.3677979 -29.619064 8.2664795 -39.59439c4.8986816 -9.975327 14.389832 -14.425873 21.125488 -20.257599c6.7356567 -5.8317413 16.07373 -12.2773285 19.288513 -14.732803" fill-rule="nonzero"></path><path fill="#000000" fill-opacity="0.0" d="m451.911 115.44838c14.542908 6.1386642 61.08026 26.856659 87.25751 36.832c26.177246 9.975327 49.90515 18.262527 69.80597 23.020004c19.900879 4.7574615 33.984497 3.3762665 49.599 5.5247955c15.614502 2.148529 36.74005 6.138672 44.088013 7.366394" fill-rule="nonzero"></path><path stroke="#666666" stroke-width="4.0" stroke-linejoin="round" stroke-linecap="butt" stroke-dasharray="16.0,12.0" d="m451.911 115.44838c14.542908 6.1386642 61.08026 26.856659 87.25751 36.832c26.177246 9.975327 49.90515 18.262527 69.80597 23.020004c19.900879 4.7574615 33.984497 3.3762665 49.599 5.5247955c15.614502 2.148529 36.74005 6.138672 44.088013 7.366394" fill-rule="nonzero"></path><path fill="#000000" fill-opacity="0.0" d="m157.40598 345.26114l-28.913376 0l0 37.5748l28.913376 0z" fill-rule="nonzero"></path><path fill="#434343" d="m145.91447 365.82175q0.84375 0.578125 1.25 1.34375q0.421875 0.75 0.421875 1.6875q0 1.015625 -0.5625 1.875q-0.546875 0.84375 -1.59375 1.296875q-1.046875 0.4375 -2.734375 0.4375q-2.21875 0 -3.328125 -0.6875q-0.625 -0.390625 -0.625 -0.9375q0 -0.40625 0.265625 -0.6875q0.28125 -0.28125 0.671875 -0.28125q0.265625 0 0.5625 0.1875q0.40625 0.28125 0.765625 0.375q0.5625 0.125 1.53125 0.125q1.65625 0 2.390625 -0.421875q0.75 -0.4375 0.75 -1.234375q0 -0.578125 -0.4375 -1.109375q-0.421875 -0.546875 -1.140625 -0.84375q-0.421875 -0.171875 -1.40625 -0.234375q-0.484375 -0.03125 -0.734375 -0.296875q-0.25 -0.265625 -0.25 -0.65625q0 -0.40625 0.265625 -0.6875q0.28125 -0.28125 0.71875 -0.28125q0.9375 0 1.0 0q0.375 -0.046875 0.734375 -0.25q0.375 -0.203125 0.609375 -0.546875q0.234375 -0.359375 0.234375 -0.75q0 -0.59375 -0.546875 -1.03125q-0.53125 -0.453125 -1.59375 -0.453125q-1.375 0 -2.09375 0.796875q-0.21875 0.234375 -0.34375 0.296875q-0.203125 0.109375 -0.4375 0.109375q-0.390625 0 -0.671875 -0.28125q-0.28125 -0.28125 -0.28125 -0.6875q0 -0.640625 0.859375 -1.25q1.25 -0.875 3.109375 -0.875q1.765625 0 2.828125 1.0q1.0625 1.0 1.0625 2.421875q0 0.71875 -0.3125 1.359375q-0.3125 0.640625 -0.9375 1.171875z" fill-rule="nonzero"></path><path fill="#000000" fill-opacity="0.0" d="m273.6366 297.7533l-45.00786 0l0 37.5748l45.00786 0z" fill-rule="nonzero"></path><path fill="#434343" d="m246.05061 318.3139q0.84375 0.578125 1.25 1.34375q0.421875 0.75 0.421875 1.6875q0 1.015625 -0.5625 1.875q-0.546875 0.84375 -1.59375 1.296875q-1.046875 0.4375 -2.734375 0.4375q-2.21875 0 -3.328125 -0.6875q-0.625 -0.390625 -0.625 -0.9375q0 -0.40625 0.265625 -0.6875q0.28125 -0.28125 0.671875 -0.28125q0.265625 0 0.5625 0.1875q0.40625 0.28125 0.765625 0.375q0.5625 0.125 1.53125 0.125q1.65625 0 2.390625 -0.421875q0.75 -0.4375 0.75 -1.234375q0 -0.578125 -0.4375 -1.109375q-0.421875 -0.546875 -1.140625 -0.84375q-0.421875 -0.171875 -1.40625 -0.234375q-0.484375 -0.03125 -0.734375 -0.296875q-0.25 -0.265625 -0.25 -0.65625q0 -0.40625 0.265625 -0.6875q0.28125 -0.28125 0.71875 -0.28125q0.9375 0 1.0 0q0.375 -0.046875 0.734375 -0.25q0.375 -0.203125 0.609375 -0.546875q0.234375 -0.359375 0.234375 -0.75q0 -0.59375 -0.546875 -1.03125q-0.53125 -0.453125 -1.59375 -0.453125q-1.375 0 -2.09375 0.796875q-0.21875 0.234375 -0.34375 0.296875q-0.203125 0.109375 -0.4375 0.109375q-0.390625 0 -0.671875 -0.28125q-0.28125 -0.28125 -0.28125 -0.6875q0 -0.640625 0.859375 -1.25q1.25 -0.875 3.109375 -0.875q1.765625 0 2.828125 1.0q1.0625 1.0 1.0625 2.421875q0 0.71875 -0.3125 1.359375q-0.3125 0.640625 -0.9375 1.171875zm12.633072 -0.703125l0 2.09375q0 1.84375 -1.078125 3.546875q-1.078125 1.703125 -3.0625 1.703125q-1.15625 0 -1.953125 -0.5q-0.78125 -0.515625 -1.5 -1.875q-0.703125 -1.359375 -0.703125 -2.875l0 -2.09375q0 -1.84375 1.0625 -3.546875q1.0625 -1.703125 3.0625 -1.703125q1.140625 0 1.9375 0.5q0.796875 0.5 1.515625 1.859375q0.71875 1.359375 0.71875 2.890625zm-1.921875 0q0 -1.546875 -0.859375 -2.703125q-0.484375 -0.640625 -1.375 -0.640625q-0.875 0 -1.421875 0.703125q-0.828125 1.0625 -0.828125 2.640625l0 2.09375q0 1.546875 0.875 2.703125q0.484375 0.640625 1.390625 0.640625q0.84375 0 1.390625 -0.703125q0.828125 -1.0625 0.828125 -2.640625l0 -2.09375z" fill-rule="nonzero"></path><path fill="#000000" fill-opacity="0.0" d="m448.8589 253.55643l-60.629944 0l0 37.5748l60.629944 0z" fill-rule="nonzero"></path><path fill="#434343" d="m401.15082 278.5702l4.171875 0q0.34375 -0.28125 0.640625 -0.28125q0.4375 0 0.6875 0.296875q0.265625 0.28125 0.265625 0.984375l0 0.90625l-8.671875 0l0 -2.015625q5.140625 -4.234375 6.21875 -5.453125q0.53125 -0.625 0.53125 -1.171875q0 -0.703125 -0.609375 -1.234375q-0.609375 -0.53125 -1.625 -0.53125q-1.015625 0 -1.6875 0.59375q-0.359375 0.3125 -0.5625 0.9375q-0.140625 0.390625 -0.375 0.5625q-0.21875 0.15625 -0.546875 0.15625q-0.390625 0 -0.671875 -0.28125q-0.28125 -0.28125 -0.28125 -0.640625q0 -0.5625 0.515625 -1.390625q0.515625 -0.84375 1.5 -1.34375q0.984375 -0.5 2.140625 -0.5q1.796875 0 2.953125 1.09375q1.15625 1.09375 1.15625 2.640625q0 0.78125 -0.328125 1.453125q-0.328125 0.671875 -1.59375 1.859375q-0.984375 0.9375 -3.828125 3.359375zm17.133087 -5.15625l0 2.09375q0 1.84375 -1.078125 3.546875q-1.078125 1.703125 -3.0625 1.703125q-1.15625 0 -1.953125 -0.5q-0.78125 -0.515625 -1.5 -1.875q-0.703125 -1.359375 -0.703125 -2.875l0 -2.09375q0 -1.84375 1.0625 -3.546875q1.0625 -1.703125 3.0625 -1.703125q1.140625 0 1.9375 0.5q0.796875 0.5 1.515625 1.859375q0.71875 1.359375 0.71875 2.890625zm-1.921875 0q0 -1.546875 -0.859375 -2.703125q-0.484375 -0.640625 -1.375 -0.640625q-0.875 0 -1.421875 0.703125q-0.828125 1.0625 -0.828125 2.640625l0 2.09375q0 1.546875 0.875 2.703125q0.484375 0.640625 1.390625 0.640625q0.84375 0 1.390625 -0.703125q0.828125 -1.0625 0.828125 -2.640625l0 -2.09375zm13.117432 0l0 2.09375q0 1.84375 -1.078125 3.546875q-1.078125 1.703125 -3.0625 1.703125q-1.15625 0 -1.953125 -0.5q-0.78125 -0.515625 -1.5 -1.875q-0.703125 -1.359375 -0.703125 -2.875l0 -2.09375q0 -1.84375 1.0625 -3.546875q1.0625 -1.703125 3.0625 -1.703125q1.140625 0 1.9375 0.5q0.796875 0.5 1.515625 1.859375q0.71875 1.359375 0.71875 2.890625zm-1.921875 0q0 -1.546875 -0.859375 -2.703125q-0.484375 -0.640625 -1.375 -0.640625q-0.875 0 -1.421875 0.703125q-0.828125 1.0625 -0.828125 2.640625l0 2.09375q0 1.546875 0.875 2.703125q0.484375 0.640625 1.390625 0.640625q0.84375 0 1.390625 -0.703125q0.828125 -1.0625 0.828125 -2.640625l0 -2.09375z" fill-rule="nonzero"></path><path fill="#000000" fill-opacity="0.0" d="m93.82767 95.843994l45.007874 0l0 42.141724l-45.007874 0z" fill-rule="nonzero"></path><path fill="#434343" d="m111.24954 116.40462q0.84375 0.578125 1.25 1.34375q0.421875 0.75 0.421875 1.6875q0 1.015625 -0.5625 1.875q-0.546875 0.84375 -1.59375 1.296875q-1.046875 0.4375 -2.734375 0.4375q-2.21875 0 -3.328125 -0.6875q-0.625 -0.390625 -0.625 -0.9375q0 -0.40625 0.265625 -0.6875q0.28125 -0.28125 0.671875 -0.28125q0.265625 0 0.5625 0.1875q0.40625 0.28125 0.765625 0.375q0.5625 0.125 1.53125 0.125q1.65625 0 2.390625 -0.421875q0.75 -0.4375 0.75 -1.234375q0 -0.578125 -0.4375 -1.109375q-0.421875 -0.546875 -1.140625 -0.84375q-0.421875 -0.171875 -1.40625 -0.234375q-0.484375 -0.03125 -0.734375 -0.296875q-0.25 -0.265625 -0.25 -0.65625q0 -0.40625 0.265625 -0.6875q0.28125 -0.28125 0.71875 -0.28125q0.9375 0 1.0 0q0.375 -0.046875 0.734375 -0.25q0.375 -0.203125 0.609375 -0.546875q0.234375 -0.359375 0.234375 -0.75q0 -0.59375 -0.546875 -1.03125q-0.53125 -0.453125 -1.59375 -0.453125q-1.375 0 -2.09375 0.796875q-0.21875 0.234375 -0.34375 0.296875q-0.203125 0.109375 -0.4375 0.109375q-0.390625 0 -0.671875 -0.28125q-0.28125 -0.28125 -0.28125 -0.6875q0 -0.640625 0.859375 -1.25q1.25 -0.875 3.109375 -0.875q1.765625 0 2.828125 1.0q1.0625 1.0 1.0625 2.421875q0 0.71875 -0.3125 1.359375q-0.3125 0.640625 -0.9375 1.171875zm6.695572 4.453125l4.171875 0q0.34375 -0.28125 0.640625 -0.28125q0.4375 0 0.6875 0.296875q0.265625 0.28125 0.265625 0.984375l0 0.90625l-8.671875 0l0 -2.015625q5.140625 -4.234375 6.21875 -5.453125q0.53125 -0.625 0.53125 -1.171875q0 -0.703125 -0.609375 -1.234375q-0.609375 -0.53125 -1.625 -0.53125q-1.015625 0 -1.6875 0.59375q-0.359375 0.3125 -0.5625 0.9375q-0.140625 0.390625 -0.375 0.5625q-0.21875 0.15625 -0.546875 0.15625q-0.390625 0 -0.671875 -0.28125q-0.28125 -0.28125 -0.28125 -0.640625q0 -0.5625 0.515625 -1.390625q0.515625 -0.84375 1.5 -1.34375q0.984375 -0.5 2.140625 -0.5q1.796875 0 2.953125 1.09375q1.15625 1.09375 1.15625 2.640625q0 0.78125 -0.328125 1.453125q-0.328125 0.671875 -1.59375 1.859375q-0.984375 0.9375 -3.828125 3.359375z" fill-rule="nonzero"></path><path fill="#000000" fill-opacity="0.0" d="m13.0 176.8716l45.007874 0l0 42.141724l-45.007874 0z" fill-rule="nonzero"></path><path fill="#434343" d="m30.421875 197.43222q0.84375 0.578125 1.25 1.34375q0.421875 0.75 0.421875 1.6875q0 1.015625 -0.5625 1.875q-0.546875 0.84375 -1.59375 1.296875q-1.046875 0.4375 -2.734375 0.4375q-2.21875 0 -3.328125 -0.6875q-0.625 -0.390625 -0.625 -0.9375q0 -0.40625 0.265625 -0.6875q0.28125 -0.28125 0.671875 -0.28125q0.265625 0 0.5625 0.1875q0.40625 0.28125 0.765625 0.375q0.5625 0.125 1.53125 0.125q1.65625 0 2.390625 -0.421875q0.75 -0.4375 0.75 -1.234375q0 -0.578125 -0.4375 -1.109375q-0.421875 -0.546875 -1.140625 -0.84375q-0.421875 -0.171875 -1.40625 -0.234375q-0.484375 -0.03125 -0.734375 -0.296875q-0.25 -0.265625 -0.25 -0.65625q0 -0.40625 0.265625 -0.6875q0.28125 -0.28125 0.71875 -0.28125q0.9375 0 1.0 0q0.375 -0.046875 0.734375 -0.25q0.375 -0.203125 0.609375 -0.546875q0.234375 -0.359375 0.234375 -0.75q0 -0.59375 -0.546875 -1.03125q-0.53125 -0.453125 -1.59375 -0.453125q-1.375 0 -2.09375 0.796875q-0.21875 0.234375 -0.34375 0.296875q-0.203125 0.109375 -0.4375 0.109375q-0.390625 0 -0.671875 -0.28125q-0.28125 -0.28125 -0.28125 -0.6875q0 -0.640625 0.859375 -1.25q1.25 -0.875 3.109375 -0.875q1.765625 0 2.828125 1.0q1.0625 1.0 1.0625 2.421875q0 0.71875 -0.3125 1.359375q-0.3125 0.640625 -0.9375 1.171875zm6.695572 4.453125l4.171875 0q0.34375 -0.28125 0.640625 -0.28125q0.4375 0 0.6875 0.296875q0.265625 0.28125 0.265625 0.984375l0 0.90625l-8.671875 0l0 -2.015625q5.140625 -4.234375 6.21875 -5.453125q0.53125 -0.625 0.53125 -1.171875q0 -0.703125 -0.609375 -1.234375q-0.609375 -0.53125 -1.625 -0.53125q-1.015625 0 -1.6875 0.59375q-0.359375 0.3125 -0.5625 0.9375q-0.140625 0.390625 -0.375 0.5625q-0.21875 0.15625 -0.546875 0.15625q-0.390625 0 -0.671875 -0.28125q-0.28125 -0.28125 -0.28125 -0.640625q0 -0.5625 0.515625 -1.390625q0.515625 -0.84375 1.5 -1.34375q0.984375 -0.5 2.140625 -0.5q1.796875 0 2.953125 1.09375q1.15625 1.09375 1.15625 2.640625q0 0.78125 -0.328125 1.453125q-0.328125 0.671875 -1.59375 1.859375q-0.984375 0.9375 -3.828125 3.359375z" fill-rule="nonzero"></path><path fill="#000000" fill-opacity="0.0" d="m182.0033 147.40701l45.00789 0l0 42.141724l-45.00789 0z" fill-rule="nonzero"></path><path fill="#434343" d="m197.67517 162.01451l0 10.40625l1.921875 0q0.6875 0 0.96875 0.265625q0.296875 0.265625 0.296875 0.6875q0 0.421875 -0.296875 0.6875q-0.28125 0.265625 -0.96875 0.265625l-5.75 0q-0.6875 0 -0.984375 -0.265625q-0.28125 -0.265625 -0.28125 -0.6875q0 -0.421875 0.28125 -0.6875q0.296875 -0.265625 0.984375 -0.265625l1.921875 0l0 -7.921875l-1.6875 0.4375q-0.421875 0.109375 -0.625 0.109375q-0.359375 0 -0.625 -0.28125q-0.265625 -0.296875 -0.265625 -0.703125q0 -0.390625 0.1875 -0.609375q0.203125 -0.21875 0.828125 -0.375l4.09375 -1.0625zm13.008072 0.3125l0 7.4375q0.609375 0 0.890625 0.265625q0.296875 0.265625 0.296875 0.671875q0 0.421875 -0.296875 0.703125q-0.296875 0.265625 -0.890625 0.265625l0 0.75q0.609375 0 0.890625 0.28125q0.296875 0.265625 0.296875 0.671875q0 0.421875 -0.296875 0.6875q-0.296875 0.265625 -0.984375 0.265625l-2.546875 0q-0.6875 0 -0.984375 -0.265625q-0.28125 -0.265625 -0.28125 -0.6875q0 -0.421875 0.28125 -0.6875q0.296875 -0.265625 0.984375 -0.265625l0.75 0l0 -0.75l-5.171875 0l0 -1.59375l4.546875 -7.75l2.515625 0zm-1.890625 7.4375l0 -4.671875l-2.765625 4.671875l2.765625 0z" fill-rule="nonzero"></path><path fill="#000000" fill-opacity="0.0" d="m203.24323 230.74016l45.007874 0l0 42.14174l-45.007874 0z" fill-rule="nonzero"></path><path fill="#434343" d="m218.9151 245.34766l0 10.40625l1.921875 0q0.6875 0 0.96875 0.265625q0.296875 0.265625 0.296875 0.6875q0 0.421875 -0.296875 0.6875q-0.28125 0.265625 -0.96875 0.265625l-5.75 0q-0.6875 0 -0.984375 -0.265625q-0.28125 -0.265625 -0.28125 -0.6875q0 -0.421875 0.28125 -0.6875q0.296875 -0.265625 0.984375 -0.265625l1.921875 0l0 -7.921875l-1.6875 0.4375q-0.421875 0.109375 -0.625 0.109375q-0.359375 0 -0.625 -0.28125q-0.265625 -0.296875 -0.265625 -0.703125q0 -0.390625 0.1875 -0.609375q0.203125 -0.21875 0.828125 -0.375l4.09375 -1.0625zm13.008072 0.3125l0 7.4375q0.609375 0 0.890625 0.265625q0.296875 0.265625 0.296875 0.671875q0 0.421875 -0.296875 0.703125q-0.296875 0.265625 -0.890625 0.265625l0 0.75q0.609375 0 0.890625 0.28125q0.296875 0.265625 0.296875 0.671875q0 0.421875 -0.296875 0.6875q-0.296875 0.265625 -0.984375 0.265625l-2.546875 0q-0.6875 0 -0.984375 -0.265625q-0.28125 -0.265625 -0.28125 -0.6875q0 -0.421875 0.28125 -0.6875q0.296875 -0.265625 0.984375 -0.265625l0.75 0l0 -0.75l-5.171875 0l0 -1.59375l4.546875 -7.75l2.515625 0zm-1.890625 7.4375l0 -4.671875l-2.765625 4.671875l2.765625 0z" fill-rule="nonzero"></path><path fill="#000000" fill-opacity="0.0" d="m320.81073 216.00786l45.007874 0l0 42.14174l-45.007874 0z" fill-rule="nonzero"></path><path fill="#434343" d="m333.90448 232.81848l0 2.265625q1.0625 -0.328125 1.921875 -0.328125q1.765625 0 2.921875 1.203125q1.15625 1.1875 1.15625 3.078125q0 1.953125 -1.171875 3.0625q-1.171875 1.109375 -3.59375 1.109375q-2.140625 0 -3.375 -0.8125q-0.734375 -0.46875 -0.734375 -1.0625q0 -0.375 0.28125 -0.65625q0.296875 -0.296875 0.6875 -0.296875q0.3125 0 0.6875 0.3125q0.390625 0.3125 0.8125 0.4375q0.59375 0.171875 1.515625 0.171875q1.734375 0 2.359375 -0.546875q0.625 -0.5625 0.625 -1.703125q0 -1.109375 -0.609375 -1.75q-0.59375 -0.640625 -1.5625 -0.640625q-1.03125 0 -2.34375 0.65625q-0.296875 0.15625 -0.515625 0.15625q-0.40625 0 -0.6875 -0.296875q-0.265625 -0.296875 -0.265625 -0.765625l0 -5.484375l5.8125 0q0.6875 0 0.96875 0.265625q0.296875 0.265625 0.296875 0.6875q0 0.421875 -0.296875 0.6875q-0.28125 0.25 -0.96875 0.25l-3.921875 0z" fill-rule="nonzero"></path><path fill="#000000" fill-opacity="0.0" d="m298.1148 163.81099l45.007874 0l0 42.14174l-45.007874 0z" fill-rule="nonzero"></path><path fill="#434343" d="m311.20856 180.62161l0 2.265625q1.0625 -0.328125 1.921875 -0.328125q1.765625 0 2.921875 1.203125q1.15625 1.1875 1.15625 3.078125q0 1.953125 -1.171875 3.0625q-1.171875 1.109375 -3.59375 1.109375q-2.140625 0 -3.375 -0.8125q-0.734375 -0.46875 -0.734375 -1.0625q0 -0.375 0.28125 -0.65625q0.296875 -0.296875 0.6875 -0.296875q0.3125 0 0.6875 0.3125q0.390625 0.3125 0.8125 0.4375q0.59375 0.171875 1.515625 0.171875q1.734375 0 2.359375 -0.546875q0.625 -0.5625 0.625 -1.703125q0 -1.109375 -0.609375 -1.75q-0.59375 -0.640625 -1.5625 -0.640625q-1.03125 0 -2.34375 0.65625q-0.296875 0.15625 -0.515625 0.15625q-0.40625 0 -0.6875 -0.296875q-0.265625 -0.296875 -0.265625 -0.765625l0 -5.484375l5.8125 0q0.6875 0 0.96875 0.265625q0.296875 0.265625 0.296875 0.6875q0 0.421875 -0.296875 0.6875q-0.28125 0.25 -0.96875 0.25l-3.921875 0z" fill-rule="nonzero"></path><path fill="#000000" fill-opacity="0.0" d="m401.6193 72.8294l67.37009 0l0 42.14173l-67.37009 0z" fill-rule="nonzero"></path><path fill="#434343" d="m414.54117 97.84315l4.171875 0q0.34375 -0.28125 0.640625 -0.28125q0.4375 0 0.6875 0.296875q0.265625 0.28125 0.265625 0.984375l0 0.90625l-8.671875 0l0 -2.015625q5.140625 -4.234375 6.21875 -5.453125q0.53125 -0.625 0.53125 -1.171875q0 -0.703125 -0.609375 -1.234375q-0.609375 -0.53125 -1.625 -0.53125q-1.015625 0 -1.6875 0.59375q-0.359375 0.3125 -0.5625 0.9375q-0.140625 0.390625 -0.375 0.5625q-0.21875 0.15625 -0.546875 0.15625q-0.390625 0 -0.671875 -0.28125q-0.28125 -0.28125 -0.28125 -0.640625q0 -0.5625 0.515625 -1.390625q0.515625 -0.84375 1.5 -1.34375q0.984375 -0.5 2.140625 -0.5q1.796875 0 2.953125 1.09375q1.15625 1.09375 1.15625 2.640625q0 0.78125 -0.328125 1.453125q-0.328125 0.671875 -1.59375 1.859375q-0.984375 0.9375 -3.828125 3.359375zm11.195587 0l4.171875 0q0.34375 -0.28125 0.640625 -0.28125q0.4375 0 0.6875 0.296875q0.265625 0.28125 0.265625 0.984375l0 0.90625l-8.671875 0l0 -2.015625q5.140625 -4.234375 6.21875 -5.453125q0.53125 -0.625 0.53125 -1.171875q0 -0.703125 -0.609375 -1.234375q-0.609375 -0.53125 -1.625 -0.53125q-1.015625 0 -1.6875 0.59375q-0.359375 0.3125 -0.5625 0.9375q-0.140625 0.390625 -0.375 0.5625q-0.21875 0.15625 -0.546875 0.15625q-0.390625 0 -0.671875 -0.28125q-0.28125 -0.28125 -0.28125 -0.640625q0 -0.5625 0.515625 -1.390625q0.515625 -0.84375 1.5 -1.34375q0.984375 -0.5 2.140625 -0.5q1.796875 0 2.953125 1.09375q1.15625 1.09375 1.15625 2.640625q0 0.78125 -0.328125 1.453125q-0.328125 0.671875 -1.59375 1.859375q-0.984375 0.9375 -3.828125 3.359375zm17.133057 -5.15625l0 2.09375q0 1.84375 -1.078125 3.546875q-1.078125 1.703125 -3.0625 1.703125q-1.15625 0 -1.953125 -0.5q-0.78125 -0.515625 -1.5 -1.875q-0.703125 -1.359375 -0.703125 -2.875l0 -2.09375q0 -1.84375 1.0625 -3.546875q1.0625 -1.703125 3.0625 -1.703125q1.140625 0 1.9375 0.5q0.796875 0.5 1.515625 1.859375q0.71875 1.359375 0.71875 2.890625zm-1.921875 0q0 -1.546875 -0.859375 -2.703125q-0.484375 -0.640625 -1.375 -0.640625q-0.875 0 -1.421875 0.703125q-0.828125 1.0625 -0.828125 2.640625l0 2.09375q0 1.546875 0.875 2.703125q0.484375 0.640625 1.390625 0.640625q0.84375 0 1.390625 -0.703125q0.828125 -1.0625 0.828125 -2.640625l0 -2.09375zm13.117462 0l0 2.09375q0 1.84375 -1.078125 3.546875q-1.078125 1.703125 -3.0625 1.703125q-1.15625 0 -1.953125 -0.5q-0.78125 -0.515625 -1.5 -1.875q-0.703125 -1.359375 -0.703125 -2.875l0 -2.09375q0 -1.84375 1.0625 -3.546875q1.0625 -1.703125 3.0625 -1.703125q1.140625 0 1.9375 0.5q0.796875 0.5 1.515625 1.859375q0.71875 1.359375 0.71875 2.890625zm-1.921875 0q0 -1.546875 -0.859375 -2.703125q-0.484375 -0.640625 -1.375 -0.640625q-0.875 0 -1.421875 0.703125q-0.828125 1.0625 -0.828125 2.640625l0 2.09375q0 1.546875 0.875 2.703125q0.484375 0.640625 1.390625 0.640625q0.84375 0 1.390625 -0.703125q0.828125 -1.0625 0.828125 -2.640625l0 -2.09375z" fill-rule="nonzero"></path><path fill="#000000" fill-opacity="0.0" d="m483.87402 105.538055l67.370056 0l0 42.14174l-67.370056 0z" fill-rule="nonzero"></path><path fill="#434343" d="m499.5459 120.14555l0 10.40625l1.921875 0q0.6875 0 0.96875 0.265625q0.296875 0.265625 0.296875 0.6875q0 0.421875 -0.296875 0.6875q-0.28125 0.265625 -0.96875 0.265625l-5.75 0q-0.6875 0 -0.984375 -0.265625q-0.28125 -0.265625 -0.28125 -0.6875q0 -0.421875 0.28125 -0.6875q0.296875 -0.265625 0.984375 -0.265625l1.921875 0l0 -7.921875l-1.6875 0.4375q-0.421875 0.109375 -0.625 0.109375q-0.359375 0 -0.625 -0.28125q-0.265625 -0.296875 -0.265625 -0.703125q0 -0.390625 0.1875 -0.609375q0.203125 -0.21875 0.828125 -0.375l4.09375 -1.0625zm14.383057 5.25l0 2.09375q0 1.84375 -1.078125 3.546875q-1.0780945 1.703125 -3.0624695 1.703125q-1.15625 0 -1.953125 -0.5q-0.78125 -0.515625 -1.5 -1.875q-0.703125 -1.359375 -0.703125 -2.875l0 -2.09375q0 -1.84375 1.0625 -3.546875q1.0625 -1.703125 3.0625 -1.703125q1.140625 0 1.9375 0.5q0.7968445 0.5 1.5155945 1.859375q0.71875 1.359375 0.71875 2.890625zm-1.921875 0q0 -1.546875 -0.8593445 -2.703125q-0.484375 -0.640625 -1.375 -0.640625q-0.875 0 -1.421875 0.703125q-0.828125 1.0625 -0.828125 2.640625l0 2.09375q0 1.546875 0.875 2.703125q0.484375 0.640625 1.390625 0.640625q0.84375 0 1.390625 -0.703125q0.8280945 -1.0625 0.8280945 -2.640625l0 -2.09375zm13.117493 0l0 2.09375q0 1.84375 -1.078125 3.546875q-1.078125 1.703125 -3.0625 1.703125q-1.15625 0 -1.953125 -0.5q-0.78125 -0.515625 -1.5 -1.875q-0.703125 -1.359375 -0.703125 -2.875l0 -2.09375q0 -1.84375 1.0625 -3.546875q1.0625 -1.703125 3.0625 -1.703125q1.140625 0 1.9375 0.5q0.796875 0.5 1.515625 1.859375q0.71875 1.359375 0.71875 2.890625zm-1.921875 0q0 -1.546875 -0.859375 -2.703125q-0.484375 -0.640625 -1.375 -0.640625q-0.875 0 -1.421875 0.703125q-0.828125 1.0625 -0.828125 2.640625l0 2.09375q0 1.546875 0.875 2.703125q0.484375 0.640625 1.390625 0.640625q0.84375 0 1.390625 -0.703125q0.828125 -1.0625 0.828125 -2.640625l0 -2.09375zm13.117432 0l0 2.09375q0 1.84375 -1.078125 3.546875q-1.078125 1.703125 -3.0625 1.703125q-1.15625 0 -1.953125 -0.5q-0.78125 -0.515625 -1.5 -1.875q-0.703125 -1.359375 -0.703125 -2.875l0 -2.09375q0 -1.84375 1.0625 -3.546875q1.0625 -1.703125 3.0625 -1.703125q1.140625 0 1.9375 0.5q0.796875 0.5 1.515625 1.859375q0.71875 1.359375 0.71875 2.890625zm-1.921875 0q0 -1.546875 -0.859375 -2.703125q-0.484375 -0.640625 -1.375 -0.640625q-0.875 0 -1.421875 0.703125q-0.828125 1.0625 -0.828125 2.640625l0 2.09375q0 1.546875 0.875 2.703125q0.484375 0.640625 1.390625 0.640625q0.84375 0 1.390625 -0.703125q0.828125 -1.0625 0.828125 -2.640625l0 -2.09375z" fill-rule="nonzero"></path><path fill="#000000" fill-opacity="0.0" d="m565.178 130.74922l60.629944 0l0 42.14174l-60.629944 0z" fill-rule="nonzero"></path><path fill="#434343" d="m578.2717 147.55984l0 2.265625q1.0625 -0.328125 1.921875 -0.328125q1.765625 0 2.921875 1.203125q1.15625 1.1875 1.15625 3.078125q0 1.953125 -1.171875 3.0625q-1.171875 1.109375 -3.59375 1.109375q-2.140625 0 -3.375 -0.8125q-0.734375 -0.46875 -0.734375 -1.0625q0 -0.375 0.28125 -0.65625q0.296875 -0.296875 0.6875 -0.296875q0.3125 0 0.6875 0.3125q0.390625 0.3125 0.8125 0.4375q0.59375 0.171875 1.515625 0.171875q1.734375 0 2.359375 -0.546875q0.625 -0.5625 0.625 -1.703125q0 -1.109375 -0.609375 -1.75q-0.59375 -0.640625 -1.5625 -0.640625q-1.03125 0 -2.34375 0.65625q-0.296875 0.15625 -0.515625 0.15625q-0.40625 0 -0.6875 -0.296875q-0.265625 -0.296875 -0.265625 -0.765625l0 -5.484375l5.8125 0q0.6875 0 0.96875 0.265625q0.296875 0.265625 0.296875 0.6875q0 0.421875 -0.296875 0.6875q-0.28125 0.25 -0.96875 0.25l-3.921875 0zm16.961243 3.046875l0 2.09375q0 1.84375 -1.078125 3.546875q-1.078125 1.703125 -3.0625 1.703125q-1.15625 0 -1.953125 -0.5q-0.78125 -0.515625 -1.5 -1.875q-0.703125 -1.359375 -0.703125 -2.875l0 -2.09375q0 -1.84375 1.0625 -3.546875q1.0625 -1.703125 3.0625 -1.703125q1.140625 0 1.9375 0.5q0.796875 0.5 1.515625 1.859375q0.71875 1.359375 0.71875 2.890625zm-1.921875 0q0 -1.546875 -0.859375 -2.703125q-0.484375 -0.640625 -1.375 -0.640625q-0.875 0 -1.421875 0.703125q-0.828125 1.0625 -0.828125 2.640625l0 2.09375q0 1.546875 0.875 2.703125q0.484375 0.640625 1.390625 0.640625q0.84375 0 1.390625 -0.703125q0.828125 -1.0625 0.828125 -2.640625l0 -2.09375zm13.117432 0l0 2.09375q0 1.84375 -1.078125 3.546875q-1.078125 1.703125 -3.0625 1.703125q-1.15625 0 -1.953125 -0.5q-0.78125 -0.515625 -1.5 -1.875q-0.703125 -1.359375 -0.703125 -2.875l0 -2.09375q0 -1.84375 1.0625 -3.546875q1.0625 -1.703125 3.0625 -1.703125q1.140625 0 1.9375 0.5q0.796875 0.5 1.515625 1.859375q0.71875 1.359375 0.71875 2.890625zm-1.921875 0q0 -1.546875 -0.859375 -2.703125q-0.484375 -0.640625 -1.375 -0.640625q-0.875 0 -1.421875 0.703125q-0.828125 1.0625 -0.828125 2.640625l0 2.09375q0 1.546875 0.875 2.703125q0.484375 0.640625 1.390625 0.640625q0.84375 0 1.390625 -0.703125q0.828125 -1.0625 0.828125 -2.640625l0 -2.09375z" fill-rule="nonzero"></path><path fill="#000000" fill-opacity="0.0" d="m613.03766 138.60225l60.629944 0l0 42.141724l-60.629944 0z" fill-rule="nonzero"></path><path fill="#434343" d="m628.70953 153.20975l0 10.40625l1.921875 0q0.6875 0 0.96875 0.265625q0.296875 0.265625 0.296875 0.6875q0 0.421875 -0.296875 0.6875q-0.28125 0.265625 -0.96875 0.265625l-5.75 0q-0.6875 0 -0.984375 -0.265625q-0.28125 -0.265625 -0.28125 -0.6875q0 -0.421875 0.28125 -0.6875q0.296875 -0.265625 0.984375 -0.265625l1.921875 0l0 -7.921875l-1.6875 0.4375q-0.421875 0.109375 -0.625 0.109375q-0.359375 0 -0.625 -0.28125q-0.265625 -0.296875 -0.265625 -0.703125q0 -0.390625 0.1875 -0.609375q0.203125 -0.21875 0.828125 -0.375l4.09375 -1.0625zm8.445618 10.40625l4.171875 0q0.34375 -0.28125 0.640625 -0.28125q0.4375 0 0.6875 0.296875q0.265625 0.28125 0.265625 0.984375l0 0.90625l-8.671875 0l0 -2.015625q5.140625 -4.234375 6.21875 -5.453125q0.53125 -0.625 0.53125 -1.171875q0 -0.703125 -0.609375 -1.234375q-0.609375 -0.53125 -1.625 -0.53125q-1.015625 0 -1.6875 0.59375q-0.359375 0.3125 -0.5625 0.9375q-0.140625 0.390625 -0.375 0.5625q-0.21875 0.15625 -0.546875 0.15625q-0.390625 0 -0.671875 -0.28125q-0.28125 -0.28125 -0.28125 -0.640625q0 -0.5625 0.515625 -1.390625q0.515625 -0.84375 1.5 -1.34375q0.984375 -0.5 2.140625 -0.5q1.796875 0 2.953125 1.09375q1.15625 1.09375 1.15625 2.640625q0 0.78125 -0.328125 1.453125q-0.328125 0.671875 -1.59375 1.859375q-0.984375 0.9375 -3.828125 3.359375zm17.133057 -5.15625l0 2.09375q0 1.84375 -1.078125 3.546875q-1.078125 1.703125 -3.0625 1.703125q-1.15625 0 -1.953125 -0.5q-0.78125 -0.515625 -1.5 -1.875q-0.703125 -1.359375 -0.703125 -2.875l0 -2.09375q0 -1.84375 1.0625 -3.546875q1.0625 -1.703125 3.0625 -1.703125q1.140625 0 1.9375 0.5q0.796875 0.5 1.515625 1.859375q0.71875 1.359375 0.71875 2.890625zm-1.921875 0q0 -1.546875 -0.859375 -2.703125q-0.484375 -0.640625 -1.375 -0.640625q-0.875 0 -1.421875 0.703125q-0.828125 1.0625 -0.828125 2.640625l0 2.09375q0 1.546875 0.875 2.703125q0.484375 0.640625 1.390625 0.640625q0.84375 0 1.390625 -0.703125q0.828125 -1.0625 0.828125 -2.640625l0 -2.09375z" fill-rule="nonzero"></path><path fill="#000000" fill-opacity="0.0" d="m672.47345 145.96838l60.629944 0l0 42.14174l-60.629944 0z" fill-rule="nonzero"></path><path fill="#434343" d="m689.9578 160.88838l0 7.4375q0.609375 0 0.890625 0.265625q0.296875 0.265625 0.296875 0.671875q0 0.421875 -0.296875 0.703125q-0.296875 0.265625 -0.890625 0.265625l0 0.75q0.609375 0 0.890625 0.28125q0.296875 0.265625 0.296875 0.671875q0 0.421875 -0.296875 0.6875q-0.296875 0.265625 -0.984375 0.265625l-2.546875 0q-0.6875 0 -0.984375 -0.265625q-0.28125 -0.265625 -0.28125 -0.6875q0 -0.421875 0.28125 -0.6875q0.296875 -0.265625 0.984375 -0.265625l0.75 0l0 -0.75l-5.171875 0l0 -1.59375l4.546875 -7.75l2.515625 0zm-1.890625 7.4375l0 -4.671875l-2.765625 4.671875l2.765625 0zm13.023682 -1.796875q0.84375 0.578125 1.25 1.34375q0.421875 0.75 0.421875 1.6875q0 1.015625 -0.5625 1.875q-0.546875 0.84375 -1.59375 1.296875q-1.046875 0.4375 -2.734375 0.4375q-2.21875 0 -3.328125 -0.6875q-0.625 -0.390625 -0.625 -0.9375q0 -0.40625 0.265625 -0.6875q0.28125 -0.28125 0.671875 -0.28125q0.265625 0 0.5625 0.1875q0.40625 0.28125 0.765625 0.375q0.5625 0.125 1.53125 0.125q1.65625 0 2.390625 -0.421875q0.75 -0.4375 0.75 -1.234375q0 -0.578125 -0.4375 -1.109375q-0.421875 -0.546875 -1.140625 -0.84375q-0.421875 -0.171875 -1.40625 -0.234375q-0.484375 -0.03125 -0.734375 -0.296875q-0.25 -0.265625 -0.25 -0.65625q0 -0.40625 0.265625 -0.6875q0.28125 -0.28125 0.71875 -0.28125q0.9375 0 1.0 0q0.375 -0.046875 0.734375 -0.25q0.375 -0.203125 0.609375 -0.546875q0.234375 -0.359375 0.234375 -0.75q0 -0.59375 -0.546875 -1.03125q-0.53125 -0.453125 -1.59375 -0.453125q-1.375 0 -2.09375 0.796875q-0.21875 0.234375 -0.34375 0.296875q-0.203125 0.109375 -0.4375 0.109375q-0.390625 0 -0.671875 -0.28125q-0.28125 -0.28125 -0.28125 -0.6875q0 -0.640625 0.859375 -1.25q1.25 -0.875 3.109375 -0.875q1.765625 0 2.828125 1.0q1.0625 1.0 1.0625 2.421875q0 0.71875 -0.3125 1.359375q-0.3125 0.640625 -0.9375 1.171875z" fill-rule="nonzero"></path><path fill="#000000" fill-opacity="0.0" d="m931.28345 95.091866l0 299.55905l-32.944885 0l0 -299.55905z" fill-rule="nonzero"></path><path fill="#434343" d="m911.04034 112.466866l-9.390625 0l0 1.609375q0 0.875 -0.34375 1.234375q-0.328125 0.375 -0.859375 0.375q-0.53125 0 -0.875 -0.375q-0.328125 -0.359375 -0.328125 -1.234375l0 -5.625q0 -0.859375 0.328125 -1.234375q0.34375 -0.375 0.875 -0.375q0.53125 0 0.859375 0.375q0.34375 0.375 0.34375 1.234375l0 1.609375l9.390625 0l0 -2.609375l-2.265625 0q-0.875 0 -1.25 -0.328125q-0.359375 -0.328125 -0.359375 -0.875q0 -0.53125 0.359375 -0.859375q0.375 -0.328125 1.25 -0.328125l4.6875 0l-0.015625 12.4375l-4.671875 0q-0.875 0 -1.25 -0.34375q-0.359375 -0.328125 -0.359375 -0.859375q0 -0.53125 0.359375 -0.875q0.375 -0.328125 1.25 -0.328125l2.265625 0l0 -2.625zm-1.15625 12.730469l-1.5 0q1.09375 1.515625 1.453125 2.390625q0.359375 0.8749924 0.359375 1.6249924q0 1.171875 -0.859375 2.28125q-0.59375 0.75 -1.203125 0.75q-0.515625 0 -0.875 -0.359375q-0.34375 -0.359375 -0.34375 -0.859375q0 -0.453125 0.4375 -0.953125q0.453125 -0.484375 0.453125 -0.859375q0 -0.515625 -0.640625 -1.5156174q-0.625 -1.0 -1.890625 -2.5l-3.625 0l0 3.4218674q0 0.875 -0.34375 1.234375q-0.328125 0.375 -0.859375 0.375q-0.53125 0 -0.875 -0.375q-0.328125 -0.359375 -0.328125 -1.234375l0 -7.2499924q0 -0.875 0.328125 -1.25q0.34375 -0.359375 0.875 -0.359375q0.53125 0 0.859375 0.359375q0.34375 0.375 0.34375 1.25l0 1.421875l5.828125 0l0 -0.859375q0 -0.875 0.328125 -1.25q0.34375 -0.359375 0.890625 -0.359375q0.515625 0 0.84375 0.359375q0.34375 0.375 0.34375 1.25l0 3.265625zm-10.640625 17.058586l0.5625 0q-0.484375 -0.890625 -0.71875 -1.984375q-0.25 -1.09375 -0.25 -1.984375q0 -1.9375 1.03125 -3.140625q1.03125 -1.203125 2.265625 -1.203125q1.515625 0 2.8125 1.53125q1.296875 1.546875 1.296875 4.265625q0 1.09375 -0.234375 2.515625l0.578125 0q0.53125 0 0.875 -0.46875q0.34375 -0.453125 0.34375 -1.75q0 -1.0625 -0.421875 -2.765625q-0.15625 -0.640625 -0.15625 -0.984375q0 -0.484375 0.34375 -0.828125q0.34375 -0.328125 0.890625 -0.328125q0.296875 0 0.515625 0.109375q0.234375 0.125 0.359375 0.328125q0.140625 0.21875 0.328125 0.890625q0.25 0.890625 0.390625 1.8125q0.140625 0.9375 0.140625 1.6875q0 2.234375 -0.96875 3.46875q-0.953125 1.234375 -2.640625 1.234375l-4.9375 0l0 0.40625q0 0.875 -0.34375 1.234375q-0.328125 0.375 -0.859375 0.375q-0.53125 0 -0.875 -0.375q-0.328125 -0.359375 -0.328125 -1.234375l0 -2.8125zm4.296875 0q0.28125 -1.4375 0.28125 -2.65625q0 -1.46875 -0.703125 -2.515625q-0.46875 -0.65625 -0.9375 -0.65625q-0.328125 0 -0.546875 0.3125q-0.390625 0.59375 -0.390625 1.609375q0 0.859375 0.34375 1.953125q0.34375 1.109375 0.921875 1.953125l1.03125 0zm3.9375 12.230469l-5.828125 0l0 3.421875q0 0.859375 -0.34375 1.234375q-0.328125 0.375 -0.859375 0.375q-0.53125 0 -0.875 -0.375q-0.328125 -0.375 -0.328125 -1.234375l0 -7.25q0 -0.875 0.328125 -1.25q0.34375 -0.359375 0.875 -0.359375q0.53125 0 0.859375 0.359375q0.34375 0.375 0.34375 1.25l0 1.421875l5.828125 0l0 -1.140625q0 -0.875 0.328125 -1.25q0.34375 -0.359375 0.890625 -0.359375q0.515625 0 0.84375 0.359375q0.34375 0.375 0.34375 1.25l0 1.140625l0.921875 0q1.5625 0 2.59375 1.171875q1.046875 1.1875 1.046875 3.421875q0 1.0 -0.1875 2.296875q-0.171875 1.3125 -0.5 1.671875q-0.328125 0.375 -0.84375 0.375q-0.5625 0 -0.90625 -0.328125q-0.34375 -0.328125 -0.34375 -0.796875q0 -0.234375 0.078125 -0.671875q0.296875 -1.484375 0.296875 -2.640625q0 -1.1875 -0.359375 -1.640625q-0.359375 -0.453125 -0.875 -0.453125l-0.921875 0l0 3.703125q0 0.859375 -0.34375 1.234375q-0.328125 0.375 -0.859375 0.375q-0.53125 0 -0.875 -0.375q-0.328125 -0.375 -0.328125 -1.234375l0 -3.703125zm0 14.402344l-5.828125 0l0 3.421875q0 0.859375 -0.34375 1.234375q-0.328125 0.375 -0.859375 0.375q-0.53125 0 -0.875 -0.375q-0.328125 -0.375 -0.328125 -1.234375l0 -7.25q0 -0.875 0.328125 -1.25q0.34375 -0.359375 0.875 -0.359375q0.53125 0 0.859375 0.359375q0.34375 0.375 0.34375 1.25l0 1.421875l5.828125 0l0 -1.140625q0 -0.875 0.328125 -1.25q0.34375 -0.359375 0.890625 -0.359375q0.515625 0 0.84375 0.359375q0.34375 0.375 0.34375 1.25l0 1.140625l0.921875 0q1.5625 0 2.59375 1.171875q1.046875 1.1875 1.046875 3.421875q0 1.0 -0.1875 2.296875q-0.171875 1.3125 -0.5 1.671875q-0.328125 0.375 -0.84375 0.375q-0.5625 0 -0.90625 -0.328125q-0.34375 -0.328125 -0.34375 -0.796875q0 -0.234375 0.078125 -0.671875q0.296875 -1.484375 0.296875 -2.640625q0 -1.1875 -0.359375 -1.640625q-0.359375 -0.453125 -0.875 -0.453125l-0.921875 0l0 3.703125q0 0.859375 -0.34375 1.234375q-0.328125 0.375 -0.859375 0.375q-0.53125 0 -0.875 -0.375q-0.328125 -0.375 -0.328125 -1.234375l0 -3.703125zm6.96875 15.277344l-2.546875 0l0 -2.859375l2.546875 0l0 2.859375zm-4.5625 0.328125l-8.234375 0l0 2.890625q0 0.859375 -0.34375 1.21875q-0.328125 0.375 -0.859375 0.375q-0.53125 0 -0.875 -0.375q-0.328125 -0.359375 -0.328125 -1.21875l0 -8.171875q0 -0.875 0.328125 -1.25q0.34375 -0.359375 0.875 -0.359375q0.53125 0 0.859375 0.359375q0.34375 0.375 0.34375 1.25l0 2.875l5.828125 0l0 -1.921875q0 -0.859375 0.328125 -1.234375q0.34375 -0.375 0.890625 -0.375q0.515625 0 0.84375 0.359375q0.34375 0.375 0.34375 1.25l0 4.328125zm-0.4375 16.964844q0.421875 0.421875 0.421875 0.890625q0 0.515625 -0.375 0.84375q-0.375 0.328125 -1.21875 0.328125l-1.546875 0q-0.875 0 -1.234375 -0.328125q-0.359375 -0.328125 -0.359375 -0.875q0 -0.484375 0.28125 -0.828125q0.203125 -0.25 0.84375 -0.390625q0.65625 -0.140625 0.984375 -0.671875q0.5625 -0.953125 0.5625 -2.4375q0 -1.6875 -1.0 -2.71875q-1.0 -1.03125 -2.515625 -1.03125q-1.40625 0 -2.234375 0.984375q-0.8125 0.984375 -0.8125 3.28125q0 1.5 0.3125 2.4375q0.1875 0.5625 0.640625 1.0625q0.453125 0.515625 0.453125 0.921875q0 0.5 -0.375 0.84375q-0.359375 0.359375 -0.84375 0.359375q-0.796875 0 -1.515625 -1.078125q-1.078125 -1.625 -1.078125 -4.734375q0 -2.8125 1.171875 -4.359375q1.5625 -2.109375 4.265625 -2.109375q2.5625 0 4.234375 1.703125q1.6875 1.71875 1.6875 4.46875q0 1.0 -0.1875 1.84375q-0.1875 0.859375 -0.5625 1.59375zm-2.375 27.648438q0.359375 -0.578125 0.546875 -1.234375q0.1875 -0.640625 0.1875 -1.34375q0 -1.390625 -0.46875 -2.21875q-0.1875 -0.359375 -0.421875 -0.359375q-0.28125 0 -0.53125 0.5q-0.1875 0.375 -0.359375 1.671875q-0.328125 2.390625 -0.65625 3.328125q-0.4375 1.234375 -1.296875 1.890625q-0.859375 0.671875 -1.796875 0.671875q-1.296875 0 -2.15625 -1.140625q-1.265625 -1.625 -1.265625 -4.21875q0 -1.046875 0.1875 -1.9375q0.171875 -0.875 0.53125 -1.625q-0.15625 -0.171875 -0.234375 -0.375q-0.078125 -0.1875 -0.078125 -0.40625q0 -0.5625 0.359375 -0.90625q0.375 -0.328125 1.25 -0.328125l0.796875 0q0.875 0 1.234375 0.328125q0.375 0.34375 0.375 0.890625q0 0.421875 -0.25 0.71875q-0.234375 0.296875 -0.8125 0.453125q-0.46875 0.5625 -0.71875 1.328125q-0.234375 0.78125 -0.234375 1.78125q0 1.65625 0.515625 2.5625q0.265625 0.4375 0.546875 0.4375q0.46875 0 0.765625 -0.625q0.3125 -0.609375 0.515625 -2.5625q0.3125 -2.890625 1.171875 -3.859375q0.859375 -0.984375 2.109375 -0.984375q1.296875 0 2.140625 1.09375q1.171875 1.484375 1.171875 3.875q0 0.828125 -0.15625 1.59375q-0.15625 0.765625 -0.484375 1.46875q0.171875 0.21875 0.25 0.40625q0.078125 0.203125 0.078125 0.375q0 0.484375 -0.375 0.8125q-0.359375 0.328125 -1.234375 0.328125l-0.578125 0q-0.78125 0 -1.0625 -0.1875q-0.546875 -0.375 -0.546875 -1.015625q0 -0.4375 0.265625 -0.765625q0.28125 -0.328125 0.71875 -0.421875zm7.375 12.667969l-2.546875 0l0 -2.859375l2.546875 0l0 2.859375zm-4.5625 0.328125l-8.234375 0l0 2.890625q0 0.859375 -0.34375 1.21875q-0.328125 0.375 -0.859375 0.375q-0.53125 0 -0.875 -0.375q-0.328125 -0.359375 -0.328125 -1.21875l0 -8.171875q0 -0.875 0.328125 -1.25q0.34375 -0.359375 0.875 -0.359375q0.53125 0 0.859375 0.359375q0.34375 0.375 0.34375 1.25l0 2.875l5.828125 0l0 -1.921875q0 -0.859375 0.328125 -1.234375q0.34375 -0.375 0.890625 -0.375q0.515625 0 0.84375 0.359375q0.34375 0.375 0.34375 1.25l0 4.328125zm-0.71875 15.855469l0.71875 0l0 2.8125q0 0.875 -0.34375 1.234375q-0.328125 0.375 -0.859375 0.375q-0.53125 0 -0.875 -0.375q-0.328125 -0.359375 -0.328125 -1.234375l0 -0.40625l-8.734375 0q-1.265625 0 -2.203125 -0.53125q-0.953125 -0.53125 -1.625 -1.640625q-0.6875 -1.09375 -0.6875 -2.484375l0 -2.71875q0 -0.859375 0.34375 -1.234375q0.328125 -0.375 0.84375 -0.375q0.546875 0 0.890625 0.375q0.328125 0.375 0.328125 1.234375l0 2.65625q0 1.09375 0.59375 1.703125q0.59375 0.609375 1.515625 0.609375l1.171875 0q-0.515625 -0.796875 -0.765625 -1.625q-0.265625 -0.828125 -0.265625 -1.6875q0 -2.453125 1.625 -4.109375q1.640625 -1.640625 4.046875 -1.640625q2.40625 0 4.046875 1.640625q1.640625 1.65625 1.640625 4.109375q0 0.90625 -0.265625 1.734375q-0.265625 0.828125 -0.8125 1.578125zm-4.59375 -0.015625q1.3125 0 2.28125 -0.984375q0.984375 -0.96875 0.984375 -2.34375q0 -1.359375 -0.984375 -2.34375q-0.96875 -0.984375 -2.28125 -0.984375q-1.34375 0 -2.3125 0.984375q-0.96875 0.984375 -0.96875 2.34375q0 1.375 0.96875 2.34375q0.96875 0.984375 2.3125 0.984375zm5.3125 9.339844l-0.8125 0q0.5625 0.65625 0.84375 1.453125q0.28125 0.796875 0.28125 1.71875q0 2.125 -1.3125 3.375q-1.0625 0.984375 -2.765625 0.984375l-4.46875 0q0 0.765625 -0.34375 1.125q-0.328125 0.359375 -0.859375 0.359375q-0.53125 0 -0.875 -0.375q-0.328125 -0.359375 -0.328125 -1.234375l0 -2.15625q0 -0.875 0.328125 -1.25q0.34375 -0.359375 0.875 -0.359375q0.53125 0 0.859375 0.359375q0.34375 0.359375 0.34375 1.125l4.53125 0q0.78125 0 1.15625 -0.421875q0.46875 -0.546875 0.46875 -1.65625q0 -0.828125 -0.328125 -1.453125q-0.328125 -0.625 -1.359375 -1.59375l-4.46875 0q0 0.9375 -0.171875 1.203125q-0.359375 0.578125 -1.03125 0.578125q-0.53125 0 -0.875 -0.375q-0.328125 -0.375 -0.328125 -1.234375l0 -2.734375q0 -0.859375 0.328125 -1.234375q0.34375 -0.375 0.875 -0.375q0.65625 0 1.03125 0.5625q0.171875 0.28125 0.171875 1.21875l5.828125 0q0 -0.765625 0.34375 -1.140625q0.34375 -0.359375 0.875 -0.359375q0.515625 0 0.84375 0.375q0.34375 0.375 0.34375 1.234375l0 2.28125zm4.5625 32.445312l-12.796875 0l0 2.875q0 0.875 -0.34375 1.234375q-0.328125 0.375 -0.859375 0.375q-0.53125 0 -0.875 -0.375q-0.328125 -0.359375 -0.328125 -1.234375l0 -8.15625q0 -0.875 0.328125 -1.25q0.34375 -0.359375 0.875 -0.359375q0.53125 0 0.859375 0.359375q0.34375 0.375 0.34375 1.25l0 2.875l10.390625 0l0 -1.9375q0 -0.84375 0.328125 -1.21875q0.34375 -0.375 0.875 -0.375q0.53125 0 0.859375 0.359375q0.34375 0.375 0.34375 1.234375l0 4.34375zm-10.078125 19.433594q-1.390625 0 -2.6875 -0.765625q-1.28125 -0.765625 -2.0625 -2.28125q-0.765625 -1.515625 -0.765625 -3.171875q0 -1.640625 0.75 -3.140625q0.765625 -1.5 2.0625 -2.28125q1.3125 -0.78125 2.71875 -0.78125q1.453125 0 2.828125 0.796875q1.390625 0.796875 2.1875 2.28125q0.796875 1.5 0.796875 3.125q0 1.640625 -0.8125 3.15625q-0.8125 1.515625 -2.1875 2.28125q-1.375 0.78125 -2.828125 0.78125zm-0.015625 -2.390625q1.15625 0 2.140625 -0.84375q1.3125 -1.125 1.3125 -2.984375q0 -1.625 -1.046875 -2.71875q-1.046875 -1.09375 -2.421875 -1.09375q-1.125 0 -2.109375 1.09375q-0.96875 1.109375 -0.96875 2.71875q0 1.625 0.96875 2.71875q0.984375 1.109375 2.125 1.109375zm4.8125 13.199219l0.71875 0l0 2.8125q0 0.875 -0.34375 1.234375q-0.328125 0.375 -0.859375 0.375q-0.53125 0 -0.875 -0.375q-0.328125 -0.359375 -0.328125 -1.234375l0 -0.40625l-8.734375 0q-1.265625 0 -2.203125 -0.53125q-0.953125 -0.53125 -1.625 -1.640625q-0.6875 -1.09375 -0.6875 -2.484375l0 -2.71875q0 -0.859375 0.34375 -1.234375q0.328125 -0.375 0.84375 -0.375q0.546875 0 0.890625 0.375q0.328125 0.375 0.328125 1.234375l0 2.65625q0 1.09375 0.59375 1.703125q0.59375 0.609375 1.515625 0.609375l1.171875 0q-0.515625 -0.796875 -0.765625 -1.625q-0.265625 -0.828125 -0.265625 -1.6875q0 -2.453125 1.625 -4.109375q1.640625 -1.640625 4.046875 -1.640625q2.40625 0 4.046875 1.640625q1.640625 1.65625 1.640625 4.109375q0 0.90625 -0.265625 1.734375q-0.265625 0.828125 -0.8125 1.578125zm-4.59375 -0.015625q1.3125 0 2.28125 -0.984375q0.984375 -0.96875 0.984375 -2.34375q0 -1.359375 -0.984375 -2.34375q-0.96875 -0.984375 -2.28125 -0.984375q-1.34375 0 -2.3125 0.984375q-0.96875 0.984375 -0.96875 2.34375q0 1.375 0.96875 2.34375q0.96875 0.984375 2.3125 0.984375zm9.875 12.636719l-2.546875 0l0 -2.859375l2.546875 0l0 2.859375zm-4.5625 0.328125l-8.234375 0l0 2.890625q0 0.859375 -0.34375 1.21875q-0.328125 0.375 -0.859375 0.375q-0.53125 0 -0.875 -0.375q-0.328125 -0.359375 -0.328125 -1.21875l0 -8.171875q0 -0.875 0.328125 -1.25q0.34375 -0.359375 0.875 -0.359375q0.53125 0 0.859375 0.359375q0.34375 0.375 0.34375 1.25l0 2.875l5.828125 0l0 -1.921875q0 -0.859375 0.328125 -1.234375q0.34375 -0.375 0.890625 -0.375q0.515625 0 0.84375 0.359375q0.34375 0.375 0.34375 1.25l0 4.328125zm-2.40625 12.621094l-4.8125 0q-0.765625 0 -1.015625 0.3125q-0.390625 0.5 -0.390625 1.765625q0 1.84375 0.78125 3.390625q0.3125 0.609375 0.3125 0.9375q0 0.46875 -0.359375 0.8125q-0.34375 0.359375 -0.84375 0.359375q-0.46875 0 -0.8125 -0.375q-0.546875 -0.578125 -1.015625 -2.28125q-0.46875 -1.6875 -0.46875 -2.84375q0 -2.234375 0.96875 -3.359375q0.96875 -1.125 2.375 -1.125l5.28125 0l0 -0.859375q0 -0.875 0.328125 -1.25q0.34375 -0.359375 0.890625 -0.359375q0.515625 0 0.84375 0.359375q0.34375 0.375 0.34375 1.25l0 0.859375l2.171875 0q0.859375 0 1.234375 0.328125q0.375 0.34375 0.375 0.890625q0 0.515625 -0.375 0.84375q-0.375 0.34375 -1.234375 0.34375l-2.171875 0l0 4.4375q0 0.875 -0.34375 1.234375q-0.328125 0.375 -0.859375 0.375q-0.53125 0 -0.875 -0.375q-0.328125 -0.359375 -0.328125 -1.234375l0 -4.4375zm-0.40625 17.589844q0.359375 -0.578125 0.546875 -1.234375q0.1875 -0.640625 0.1875 -1.34375q0 -1.390625 -0.46875 -2.21875q-0.1875 -0.359375 -0.421875 -0.359375q-0.28125 0 -0.53125 0.5q-0.1875 0.375 -0.359375 1.671875q-0.328125 2.390625 -0.65625 3.328125q-0.4375 1.234375 -1.296875 1.890625q-0.859375 0.671875 -1.796875 0.671875q-1.296875 0 -2.15625 -1.140625q-1.265625 -1.625 -1.265625 -4.21875q0 -1.046875 0.1875 -1.9375q0.171875 -0.875 0.53125 -1.625q-0.15625 -0.171875 -0.234375 -0.375q-0.078125 -0.1875 -0.078125 -0.40625q0 -0.5625 0.359375 -0.90625q0.375 -0.328125 1.25 -0.328125l0.796875 0q0.875 0 1.234375 0.328125q0.375 0.34375 0.375 0.890625q0 0.421875 -0.25 0.71875q-0.234375 0.296875 -0.8125 0.453125q-0.46875 0.5625 -0.71875 1.328125q-0.234375 0.78125 -0.234375 1.78125q0 1.65625 0.515625 2.5625q0.265625 0.4375 0.546875 0.4375q0.46875 0 0.765625 -0.625q0.3125 -0.609375 0.515625 -2.5625q0.3125 -2.890625 1.171875 -3.859375q0.859375 -0.984375 2.109375 -0.984375q1.296875 0 2.140625 1.09375q1.171875 1.484375 1.171875 3.875q0 0.828125 -0.15625 1.59375q-0.15625 0.765625 -0.484375 1.46875q0.171875 0.21875 0.25 0.40625q0.078125 0.203125 0.078125 0.375q0 0.484375 -0.375 0.8125q-0.359375 0.328125 -1.234375 0.328125l-0.578125 0q-0.78125 0 -1.0625 -0.1875q-0.546875 -0.375 -0.546875 -1.015625q0 -0.4375 0.265625 -0.765625q0.28125 -0.328125 0.71875 -0.421875z" fill-rule="nonzero"></path><path fill="#434343" d="m97.48294 313.55905l-7.0866165 -6.892212l0 -71.97392l7.0866165 6.892227z" fill-rule="nonzero"></path><path stroke="#000000" stroke-width="1.0" stroke-linejoin="round" stroke-linecap="butt" d="m97.48294 313.55905l-7.0866165 -6.892212l0 -71.97392l7.0866165 6.892227z" fill-rule="nonzero"></path><path fill="#ff0000" d="m75.23156 219.25935l0 0c-1.0523834 -24.613632 6.470642 -44.926514 16.803154 -45.37007l0 0c4.9618454 -0.2130127 9.9212265 4.278137 13.787132 12.485443c3.8659058 8.207291 6.321663 19.45845 6.8270416 31.278336l0 0c1.0523834 24.613632 -6.470642 44.9265 -16.803154 45.37007l0 0c-10.332504 0.443573 -19.561783 -19.150131 -20.614174 -43.76378z" fill-rule="nonzero"></path><path stroke="#ff0000" stroke-width="1.0" stroke-linejoin="round" stroke-linecap="butt" d="m75.23156 219.25935l0 0c-1.0523834 -24.613632 6.470642 -44.926514 16.803154 -45.37007l0 0c4.9618454 -0.2130127 9.9212265 4.278137 13.787132 12.485443c3.8659058 8.207291 6.321663 19.45845 6.8270416 31.278336l0 0c1.0523834 24.613632 -6.470642 44.9265 -16.803154 45.37007l0 0c-10.332504 0.443573 -19.561783 -19.150131 -20.614174 -43.76378z" fill-rule="nonzero"></path><path fill="#ffffff" d="m80.03412 219.03993l0 0c-0.7566757 -17.873154 4.855629 -32.623077 12.535431 -32.944885l0 0c3.687973 -0.15452576 7.36924 3.106842 10.233971 9.066666c2.8647308 5.9598083 4.678253 14.129868 5.0416183 22.71286l0 0c0.7566757 17.873154 -4.855629 32.623077 -12.535431 32.944885l0 0c-7.679802 0.32180786 -14.518913 -13.906372 -15.275589 -31.779526z" fill-rule="nonzero"></path><path stroke="#ff0000" stroke-width="1.0" stroke-linejoin="round" stroke-linecap="butt" d="m80.03412 219.03993l0 0c-0.7566757 -17.873154 4.855629 -32.623077 12.535431 -32.944885l0 0c3.687973 -0.15452576 7.36924 3.106842 10.233971 9.066666c2.8647308 5.9598083 4.678253 14.129868 5.0416183 22.71286l0 0c0.7566757 17.873154 -4.855629 32.623077 -12.535431 32.944885l0 0c-7.679802 0.32180786 -14.518913 -13.906372 -15.275589 -31.779526z" fill-rule="nonzero"></path><path fill="#000000" fill-opacity="0.0" d="m92.74278 208.44882l-6.9921265 -9.007874" fill-rule="nonzero"></path><path stroke="#000000" stroke-width="3.0" stroke-linejoin="round" stroke-linecap="butt" d="m92.74278 208.44882l-6.9921265 -9.007874" fill-rule="nonzero"></path><path fill="#000000" fill-opacity="0.0" d="m85.750656 199.44095l0.25196838 12.881882" fill-rule="nonzero"></path><path stroke="#000000" stroke-width="3.0" stroke-linejoin="round" stroke-linecap="butt" d="m85.750656 199.44095l0.25196838 12.881882" fill-rule="nonzero"></path><path fill="#000000" fill-opacity="0.0" d="m86.388824 211.03674c0.80887604 2.0773773 4.1082916 8.96434 4.853264 12.464264c0.7449722 3.499939 0.53180695 7.9952545 -0.38343048 8.535355c-0.9152374 0.54011536 -4.256668 -4.412262 -5.1080017 -5.2947083" fill-rule="nonzero"></path><path stroke="#000000" stroke-width="3.0" stroke-linejoin="round" stroke-linecap="butt" d="m86.388824 211.03674c0.80887604 2.0773773 4.1082916 8.96434 4.853264 12.464264c0.7449722 3.499939 0.53180695 7.9952545 -0.38343048 8.535355c-0.9152374 0.54011536 -4.256668 -4.412262 -5.1080017 -5.2947083" fill-rule="nonzero"></path><path fill="#cfe2f3" d="m95.874016 221.50656l0 0c0 -8.14946 1.2338638 -14.755905 2.7559052 -14.755905l0 0c0.73091125 0 1.4318848 1.5546417 1.9487228 4.3218994c0.51683044 2.767273 0.8071823 6.5204926 0.8071823 10.434006l0 0c0 8.14946 -1.2338638 14.755905 -2.7559052 14.755905l0 0c-0.73091125 0 -1.4318848 -1.5546417 -1.9487228 -4.3218994c-0.51683044 -2.767273 -0.8071823 -6.5204926 -0.8071823 -10.434006z" fill-rule="nonzero"></path><path stroke="#000000" stroke-width="3.0" stroke-linejoin="round" stroke-linecap="butt" d="m95.874016 221.50656l0 0c0 -8.14946 1.2338638 -14.755905 2.7559052 -14.755905l0 0c0.73091125 0 1.4318848 1.5546417 1.9487228 4.3218994c0.51683044 2.767273 0.8071823 6.5204926 0.8071823 10.434006l0 0c0 8.14946 -1.2338638 14.755905 -2.7559052 14.755905l0 0c-0.73091125 0 -1.4318848 -1.5546417 -1.9487228 -4.3218994c-0.51683044 -2.767273 -0.8071823 -6.5204926 -0.8071823 -10.434006z" fill-rule="nonzero"></path></g></svg>

